<svg width="146" height="167" fill="none" xmlns="http://www.w3.org/2000/svg"><path fill-rule="evenodd" clip-rule="evenodd" d="M52.025 40.687c.657-1.425 1.426-2.533 1.934-3.117a12.257 12.257 0 0 1-.53 3.687 12.258 12.258 0 0 1 3.066 2.114c-.774-.024-2.11-.211-3.602-.697-.688 1.517-1.558 2.564-2.128 3.052.039-1.277.307-2.5.685-3.604-1.067-.473-2.148-1.107-3.111-1.946.745-.087 2.105-.014 3.686.511z" fill="url(#a)"/><path fill-rule="evenodd" clip-rule="evenodd" d="M46.833 26.405c.438-.95.95-1.687 1.288-2.075a8.157 8.157 0 0 1-.354 2.454c.674.325 1.373.78 2.042 1.407-.515-.016-1.404-.14-2.398-.464-.458 1.01-1.037 1.707-1.416 2.032.026-.85.204-1.665.456-2.4a8.225 8.225 0 0 1-2.071-1.294c.496-.059 1.401-.01 2.453.34z" fill="url(#b)"/><path fill-rule="evenodd" clip-rule="evenodd" d="M32.783 12.207c.656-1.426 1.426-2.533 1.934-3.117a12.26 12.26 0 0 1-.531 3.687 12.26 12.26 0 0 1 3.067 2.113c-.774-.023-2.11-.21-3.602-.697-.688 1.518-1.558 2.565-2.128 3.053.039-1.277.307-2.5.685-3.605-1.067-.472-2.148-1.106-3.111-1.945.745-.087 2.105-.014 3.686.511z" fill="url(#c)"/><path fill-rule="evenodd" clip-rule="evenodd" d="M30.556 44.172c.967-2.097 2.098-3.727 2.846-4.586a18.033 18.033 0 0 1-.781 5.424 18.032 18.032 0 0 1 4.512 3.11c-1.139-.035-3.103-.31-5.3-1.026-1.011 2.233-2.291 3.774-3.13 4.491.057-1.878.452-3.678 1.007-5.303-1.569-.695-3.159-1.627-4.576-2.861 1.096-.129 3.096-.021 5.422.751z" fill="url(#d)"/><circle cx="36.369" cy="29.816" r=".847" transform="rotate(21.387 36.37 29.816)" fill="#2F235A"/><circle cx="57.33" cy="19.172" r=".847" transform="rotate(21.387 57.33 19.172)" fill="#FE9076"/><circle cx="17.095" cy="23.796" r=".847" transform="rotate(21.387 17.095 23.796)" fill="#FFA400"/><circle cx="35.272" cy="57.882" r=".847" transform="rotate(21.387 35.272 57.882)" fill="#23BB86"/><path d="M56.687 15.126c-.824-3.145-3.797-10.34-9.099-13.95" stroke="#FE9076" stroke-width=".737" stroke-linecap="round"/><path d="M14.596 20.381c-2.05-2.524-7.728-7.848-14.048-8.947" stroke="#FFA400" stroke-width=".737" stroke-linecap="round"/><path d="M31.67 59.112c-1.816.662-6.388 2.773-10.146 5.916" stroke="#23BB86" stroke-width=".737" stroke-linecap="round"/><path fill-rule="evenodd" clip-rule="evenodd" d="M93.975 40.687c-.656-1.425-1.426-2.533-1.934-3.117-.01 1.377.202 2.613.53 3.687a12.258 12.258 0 0 0-3.066 2.114c.774-.024 2.11-.211 3.602-.697.688 1.517 1.558 2.564 2.128 3.052-.039-1.277-.307-2.5-.685-3.604 1.067-.473 2.148-1.107 3.111-1.946-.745-.087-2.105-.014-3.686.511z" fill="url(#e)"/><path fill-rule="evenodd" clip-rule="evenodd" d="M99.167 26.405c-.438-.95-.95-1.687-1.288-2.075-.007.917.135 1.739.353 2.454a8.158 8.158 0 0 0-2.04 1.407c.514-.016 1.403-.14 2.397-.464.458 1.01 1.037 1.707 1.416 2.032a8.219 8.219 0 0 0-.456-2.4 8.223 8.223 0 0 0 2.071-1.294c-.496-.059-1.401-.01-2.453.34z" fill="url(#f)"/><path fill-rule="evenodd" clip-rule="evenodd" d="M113.217 12.207c-.656-1.426-1.426-2.533-1.934-3.117-.01 1.377.202 2.613.531 3.687a12.28 12.28 0 0 0-3.067 2.113c.774-.023 2.109-.21 3.602-.697.688 1.518 1.558 2.565 2.128 3.053-.039-1.277-.307-2.5-.685-3.605 1.067-.472 2.148-1.106 3.111-1.945-.745-.087-2.105-.014-3.686.511z" fill="url(#g)"/><path fill-rule="evenodd" clip-rule="evenodd" d="M115.444 44.172c-.967-2.097-2.098-3.727-2.846-4.586a18.011 18.011 0 0 0 .781 5.424 18.042 18.042 0 0 0-4.512 3.11c1.139-.035 3.103-.31 5.299-1.026 1.012 2.233 2.292 3.774 3.131 4.491-.057-1.878-.452-3.678-1.007-5.303 1.569-.695 3.159-1.627 4.576-2.861-1.096-.129-3.096-.021-5.422.751z" fill="url(#h)"/><circle cx=".847" cy=".847" r=".847" transform="scale(-1 1) rotate(21.387 -131.1 -277.199)" fill="#2F235A"/><circle cx=".847" cy=".847" r=".847" transform="scale(-1 1) rotate(21.387 -92.436 -227.02)" fill="#FE9076"/><circle cx=".847" cy=".847" r=".847" transform="scale(-1 1) rotate(21.387 -124.798 -331.246)" fill="#FFA400"/><circle cx=".847" cy=".847" r=".847" transform="scale(-1 1) rotate(21.387 -205.963 -266.07)" fill="#23BB86"/><path d="M89.314 15.126c.823-3.145 3.796-10.34 9.098-13.95" stroke="#FE9076" stroke-width=".737" stroke-linecap="round"/><path d="M131.404 20.381c2.049-2.524 7.728-7.848 14.048-8.947" stroke="#FFA400" stroke-width=".737" stroke-linecap="round"/><path d="M114.33 59.112c1.816.662 6.387 2.773 10.146 5.916" stroke="#23BB86" stroke-width=".737" stroke-linecap="round"/><path fill="url(#i)" d="M26.815 104.439h89.85v62.11h-89.85z"/><mask id="j" style="mask-type:alpha" maskUnits="userSpaceOnUse" x="26" y="104" width="91" height="63"><path fill="#C4C4C4" d="M26.815 104.439h89.85v62.11h-89.85z"/></mask><g mask="url(#j)"><path d="M31.067 102.858h61.182L78.42 126.869H17.238l13.829-24.011z" fill="#000" fill-opacity=".07"/><path fill="url(#k)" d="M87.917 104.439h89.85v62.11h-89.85z"/></g><path d="M26.736 104.439h61.182l-11.819 19.723H14.919l11.818-19.723z" fill="url(#l)"/><mask id="m" style="mask-type:alpha" maskUnits="userSpaceOnUse" x="87" y="104" width="30" height="63"><path fill="#C4C4C4" d="M87.918 104.439h28.748v62.11H87.918z"/></mask><g mask="url(#m)"><path d="M113.166 104.336H84.373l13.53 22.707h28.792l-13.529-22.707z" fill="#000" fill-opacity=".07"/></g><path d="M116.711 104.439H87.918l11.819 19.723h28.792l-11.818-19.723z" fill="url(#n)"/><circle cx="56.743" cy="88.62" r="8.491" fill="url(#o)"/><circle cx="89.373" cy="67.686" r="8.205" fill="url(#p)"/><circle cx="58.618" cy="57.103" r="6.616" fill="url(#q)"/><circle cx="76.991" cy="41.994" r="5.985" fill="url(#r)"/><circle cx="65.234" cy="25.37" r="4.636" fill="url(#s)"/><circle cx="73.201" cy="66.037" r="1.65" fill="#FFA800" fill-opacity=".23"/><circle cx="100.642" cy="52.137" r="1.65" fill="#FFA800" fill-opacity=".23"/><circle cx="102.292" cy="25.37" r="1.65" fill="#FFA800" fill-opacity=".23"/><circle cx="46.602" cy="28.357" r="1.65" fill="#FFA800" fill-opacity=".23"/><circle cx="80.201" cy="92.284" r="1.65" fill="#FFA800" fill-opacity=".23"/><circle cx="38.796" cy="62.736" r="1.65" fill="#FFA800" fill-opacity=".23"/><path d="M116.878 104.733H26.744L12.902 19.385H133.5l-16.622 85.348z" fill="url(#t)"/><defs><linearGradient id="k" x1="42.145" y1="100.5" x2="150.825" y2="216.639" gradientUnits="userSpaceOnUse"><stop stop-color="#FFD481"/><stop offset=".833" stop-color="#FA620C"/></linearGradient><linearGradient id="a" x1="53.709" y1="38.474" x2="50.71" y2="46.131" gradientUnits="userSpaceOnUse"><stop stop-color="#FFE89E"/><stop offset="1" stop-color="#FFBF1A"/></linearGradient><linearGradient id="c" x1="34.467" y1="9.993" x2="31.468" y2="17.651" gradientUnits="userSpaceOnUse"><stop stop-color="#FFE89E"/><stop offset="1" stop-color="#FFBF1A"/></linearGradient><linearGradient id="d" x1="33.035" y1="40.915" x2="28.622" y2="52.182" gradientUnits="userSpaceOnUse"><stop stop-color="#FFE89E"/><stop offset="1" stop-color="#FFBF1A"/></linearGradient><linearGradient id="e" x1="92.291" y1="38.474" x2="95.29" y2="46.131" gradientUnits="userSpaceOnUse"><stop stop-color="#FFE89E"/><stop offset="1" stop-color="#FFBF1A"/></linearGradient><linearGradient id="f" x1="98.045" y1="24.931" x2="100.042" y2="30.028" gradientUnits="userSpaceOnUse"><stop stop-color="#FFE89E"/><stop offset="1" stop-color="#FFBF1A"/></linearGradient><linearGradient id="g" x1="111.533" y1="9.993" x2="114.532" y2="17.651" gradientUnits="userSpaceOnUse"><stop stop-color="#FFE89E"/><stop offset="1" stop-color="#FFBF1A"/></linearGradient><linearGradient id="h" x1="112.965" y1="40.915" x2="117.378" y2="52.182" gradientUnits="userSpaceOnUse"><stop stop-color="#FFE89E"/><stop offset="1" stop-color="#FFBF1A"/></linearGradient><linearGradient id="i" x1="56.83" y1="92.94" x2="21.019" y2="191.572" gradientUnits="userSpaceOnUse"><stop stop-color="#FFD481"/><stop offset="1" stop-color="#FA620C"/></linearGradient><linearGradient id="b" x1="47.955" y1="24.931" x2="45.958" y2="30.028" gradientUnits="userSpaceOnUse"><stop stop-color="#FFE89E"/><stop offset="1" stop-color="#FFBF1A"/></linearGradient><linearGradient id="l" x1="27.995" y1="97.39" x2="25.087" y2="139.413" gradientUnits="userSpaceOnUse"><stop stop-color="#FFD481"/><stop offset="1" stop-color="#FA620C"/></linearGradient><linearGradient id="n" x1="121.254" y1="97.39" x2="126.426" y2="138.971" gradientUnits="userSpaceOnUse"><stop stop-color="#FFD481"/><stop offset="1" stop-color="#FA620C"/></linearGradient><linearGradient id="o" x1="57.386" y1="77.326" x2="55.771" y2="100.245" gradientUnits="userSpaceOnUse"><stop stop-color="#FF9F81"/><stop offset="1" stop-color="#F53838"/></linearGradient><linearGradient id="p" x1="89.994" y1="56.774" x2="88.433" y2="78.92" gradientUnits="userSpaceOnUse"><stop stop-color="#FF9F81"/><stop offset="1" stop-color="#F53838"/></linearGradient><linearGradient id="q" x1="59.119" y1="48.303" x2="57.86" y2="66.162" gradientUnits="userSpaceOnUse"><stop stop-color="#FF9F81"/><stop offset="1" stop-color="#F53838"/></linearGradient><linearGradient id="r" x1="77.444" y1="34.033" x2="76.306" y2="50.189" gradientUnits="userSpaceOnUse"><stop stop-color="#FF9F81"/><stop offset="1" stop-color="#F53838"/></linearGradient><linearGradient id="s" x1="65.585" y1="19.204" x2="64.703" y2="31.719" gradientUnits="userSpaceOnUse"><stop stop-color="#FF9F81"/><stop offset="1" stop-color="#F53838"/></linearGradient><linearGradient id="t" x1="72.21" y1="19.385" x2="72.21" y2="200.709" gradientUnits="userSpaceOnUse"><stop stop-color="#fff" stop-opacity="0"/><stop offset="1" stop-color="#FE9277"/></linearGradient></defs></svg>